<svg width="102" height="95" fill="none" xmlns="http://www.w3.org/2000/svg"><path fill="#fff" d="M42 18.795h24v64H42z"/><path fill-rule="evenodd" clip-rule="evenodd" d="M39.459 6.091c5.55-8.121 17.531-8.121 23.082 0l2.196 3.213a386.075 386.075 0 0 1 35.297 63.864l.458 1.054C103.919 82.1 98.742 91.046 90.204 92a352.97 352.97 0 0 1-78.409 0c-8.537-.954-13.714-9.9-10.288-17.778l.459-1.054A386.062 386.062 0 0 1 37.263 9.303l2.196-3.212Zm16.624 25.454a5.083 5.083 0 1 1-10.166 0 5.083 5.083 0 0 1 10.166 0ZM51 45.525a3.812 3.812 0 0 1 3.813 3.812v25.416a3.812 3.812 0 1 1-7.626 0V49.338A3.812 3.812 0 0 1 51 45.524Z" fill="#E63131"/></svg>