<?xml version="1.0" encoding="utf-8"?><svg xmlns="http://www.w3.org/2000/svg" xmlns:xlink="http://www.w3.org/1999/xlink"><symbol viewBox="0 0 24 24" id="attach" xmlns="http://www.w3.org/2000/svg"><path fill-rule="evenodd" clip-rule="evenodd" d="M12 21.75A6.75 6.75 0 015.25 15V7a4.75 4.75 0 019.5 0v8.143a2.75 2.75 0 01-5.5 0V7.286a.75.75 0 011.5 0v7.857a1.25 1.25 0 002.5 0V7a3.25 3.25 0 00-6.5 0v8a5.25 5.25 0 1010.5 0V7.286a.75.75 0 011.5 0V15A6.75 6.75 0 0112 21.75z"/></symbol><symbol viewBox="0 0 32 43" id="check-list" xmlns="http://www.w3.org/2000/svg"><path fill-rule="evenodd" clip-rule="evenodd" d="M6.128.81c-.804.502-1.008 1.083-1.008 2.87v1.567h-1.8C.413 5.25 0 5.708 0 8.93c0 1.771.021 1.898.35 2.078.297.163.392.137.64-.176.24-.306.29-.673.29-2.152 0-2.265.054-2.318 2.261-2.248l1.499.047.08.91c.096 1.09.424 1.655 1.172 2.02.701.34 1.115.34 1.816 0 .748-.365 1.076-.93 1.172-2.02l.08-.91h4.48l.08.91c.096 1.09.424 1.655 1.172 2.02.701.34 1.115.34 1.816 0 .748-.365 1.076-.93 1.172-2.02l.08-.91h4.48l.08.91c.096 1.09.424 1.655 1.172 2.02.701.34 1.115.34 1.816 0 .748-.365 1.076-.93 1.172-2.02l.08-.91 1.498-.047c1.15-.037 1.588.012 1.88.209l.382.256V19.92c0 12.343.015 13.044.29 13.392.248.314.343.34.64.177l.35-.192V20.17c0-14.463.035-13.95-.99-14.59-.449-.28-.807-.332-2.33-.332h-1.8V3.68c0-1.787-.204-2.368-1.008-2.87-.996-.624-2.375-.238-2.904.811-.173.343-.248.965-.248 2.059v1.567h-4.64V3.68c0-1.787-.204-2.368-1.008-2.87-.975-.61-2.242-.292-2.838.712-.254.426-.313.828-.313 2.125l-.001 1.6H9.28v-1.6c-.001-1.297-.06-1.7-.314-2.125C8.37.518 7.103.2 6.128.81zm1.74 1.263c.26.241.292.562.292 2.917 0 2.967-.116 3.375-.96 3.375-.842 0-.96-.41-.96-3.347 0-2.205.042-2.664.265-2.917.33-.374.976-.387 1.362-.028zm8.8 0c.26.241.292.562.292 2.917 0 2.967-.116 3.375-.96 3.375-.842 0-.96-.41-.96-3.347 0-2.205.042-2.664.265-2.917.33-.374.976-.387 1.362-.028zm8.8 0c.26.241.292.562.292 2.917 0 2.967-.116 3.375-.96 3.375-.842 0-.96-.41-.96-3.347 0-2.205.042-2.664.265-2.917.33-.374.976-.387 1.362-.028zM.097 13.056C.043 13.199 0 19.496 0 27.049 0 40.036.016 40.812.292 41.34c.161.308.538.694.838.86.516.283 1.302.299 14.87.299s14.354-.016 14.87-.3c.971-.534 1.13-1.083 1.13-3.91 0-1.37-.044-2.608-.097-2.751-.136-.364-.818-.325-1.017.058-.093.178-.166 1.389-.166 2.757 0 1.678-.06 2.5-.192 2.636-.278.286-28.778.286-29.056 0-.146-.15-.192-3.456-.192-13.878 0-9.117-.055-13.787-.166-13.998-.2-.383-.88-.422-1.017-.058zm9.702.03c-.154.16-.92 1.082-1.703 2.051-.782.97-1.466 1.761-1.52 1.76-.053 0-.264-.3-.467-.666-.308-.552-.443-.656-.8-.614-.684.081-.628.627.196 1.934.4.634.835 1.153.967 1.153.271 0 .581-.336 2.646-2.872 1.78-2.185 1.946-2.49 1.524-2.808-.395-.295-.505-.287-.843.062zm2.76 2.164c-1.023.434-1.465 1.817-.885 2.767.624 1.021.733 1.034 8.164.981 6.505-.046 6.711-.058 7.15-.39.248-.189.545-.642.66-1.008.271-.86-.037-1.697-.8-2.174-.51-.319-.782-.33-7.25-.321-3.695.005-6.863.07-7.04.145zm13.902 1.526c.128.21.128.365 0 .574-.163.265-.692.29-6.781.33-4.742.031-6.666-.01-6.823-.143-.228-.194-.296-.831-.11-1.023.06-.06 3.13-.092 6.823-.068 6.194.04 6.728.065 6.89.33zM8.292 23.05c-1.616 2.004-1.657 2.041-1.892 1.688-.632-.953-.932-1.2-1.23-1.012-.477.3-.425.651.278 1.864.962 1.66 1.012 1.643 3.25-1.13 2.285-2.831 2.305-2.863 2.033-3.2-.427-.527-.784-.265-2.44 1.79zm3.99.505c-.48.267-.922 1.009-.922 1.546 0 .633.45 1.455.94 1.715.417.221 1.43.257 7.35.257 6.802 0 6.87-.004 7.308-.356.807-.651 1.047-1.879.51-2.606-.61-.825-.496-.813-7.864-.806-5.777.005-6.954.046-7.322.25zm13.968 1.062c.403.22.403.916 0 1.137-.423.233-12.877.233-13.3 0-.346-.19-.412-.809-.118-1.11.252-.258 12.95-.284 13.418-.027zM8.267 31.245l-1.664 2.037-.506-.735c-.526-.765-.878-.867-1.198-.347-.134.219-.101.424.143.892.564 1.077 1.193 1.859 1.495 1.859.186 0 .973-.843 2.108-2.257.997-1.24 1.914-2.38 2.038-2.531.324-.396.108-.956-.368-.956-.295 0-.769.472-2.048 2.038zm4.256.339c-1.217.543-1.488 2.124-.532 3.106l.495.507 6.926.046 6.926.046.551-.38a2.12 2.12 0 00.777-1.044c.205-.604.198-.724-.08-1.307-.581-1.22-.562-1.218-7.986-1.21-5.27.004-6.662.05-7.077.236zm13.939 1.439c.128.21.128.365 0 .574-.164.266-.674.287-6.96.287H12.72l-.052-.378c-.12-.869-.201-.86 6.976-.813 6.124.04 6.655.065 6.818.33z"/></symbol><symbol viewBox="0 0 193 38" id="logo" xmlns="http://www.w3.org/2000/svg"><path d="M24.616 12.515a6.385 6.385 0 00-.888-1.971A5.676 5.676 0 0022.29 9.07a6.169 6.169 0 00-1.953-.905 8.636 8.636 0 00-2.415-.32c-1.764 0-3.29.426-4.581 1.279-1.278.852-2.267 2.095-2.965 3.728-.699 1.622-1.048 3.593-1.048 5.913 0 2.332.337 4.32 1.012 5.966.675 1.645 1.652 2.9 2.93 3.764 1.278.864 2.829 1.296 4.652 1.296 1.61 0 2.971-.26 4.084-.781 1.124-.533 1.977-1.284 2.556-2.255.58-.97.87-2.113.87-3.427l1.634.195h-8.842v-6.41h15.678v4.812c0 3.256-.693 6.043-2.077 8.363-1.373 2.32-3.267 4.102-5.682 5.345-2.403 1.243-5.167 1.864-8.292 1.864-3.468 0-6.516-.752-9.144-2.255s-4.676-3.646-6.144-6.427C1.095 26.02.362 22.707.362 18.87c0-2.982.443-5.628 1.331-7.936.888-2.32 2.125-4.285 3.711-5.895a16.038 16.038 0 015.54-3.658C13.05.554 15.318.14 17.744.14c2.107 0 4.066.302 5.877.906 1.823.603 3.433 1.456 4.83 2.557a13.554 13.554 0 013.427 3.924c.876 1.515 1.42 3.178 1.633 4.989h-8.895zM39.082 37V.636h25.355v7.138H47.871v7.458h15.27v7.155h-15.27v7.475h16.566V37H39.082zm30.86 0V.636h24.822v7.138H78.731v7.458h14.453v7.155H78.73V37h-8.79zm29.248 0V.636h25.355v7.138h-16.566v7.458h15.27v7.155h-15.27v7.475h16.566V37H99.19zm50.515-25.462c-.119-1.302-.646-2.314-1.581-3.036-.923-.734-2.243-1.1-3.959-1.1-1.137 0-2.084.147-2.841.443-.758.296-1.326.704-1.705 1.225a2.965 2.965 0 00-.586 1.758c-.023.545.083 1.024.32 1.438.249.415.604.782 1.065 1.101.474.308 1.042.58 1.705.817s1.408.444 2.237.621l3.125.71c1.799.391 3.386.912 4.759 1.563 1.385.651 2.545 1.427 3.48 2.326a8.992 8.992 0 012.148 3.107c.485 1.172.734 2.486.746 3.942-.012 2.297-.592 4.267-1.74 5.913-1.148 1.645-2.8 2.906-4.954 3.782-2.143.876-4.729 1.314-7.759 1.314-3.042 0-5.694-.456-7.955-1.368-2.261-.911-4.018-2.296-5.273-4.154-1.255-1.859-1.9-4.209-1.936-7.05h8.417c.071 1.172.384 2.15.941 2.93.556.782 1.32 1.373 2.29 1.776.983.402 2.119.604 3.409.604 1.184 0 2.19-.16 3.019-.48.84-.32 1.485-.763 1.935-1.331a3.15 3.15 0 00.693-1.954c-.012-.686-.225-1.272-.64-1.757-.414-.498-1.053-.924-1.917-1.279-.853-.367-1.942-.704-3.267-1.012l-3.8-.888c-3.149-.722-5.629-1.888-7.44-3.498-1.811-1.621-2.71-3.811-2.699-6.57-.011-2.248.592-4.22 1.812-5.912 1.219-1.693 2.906-3.012 5.06-3.96 2.154-.946 4.61-1.42 7.369-1.42 2.817 0 5.261.48 7.333 1.438 2.083.947 3.699 2.28 4.847 3.995 1.148 1.717 1.734 3.705 1.758 5.966h-8.416zm12.162-3.764V.636h30.735v7.138h-11.026V37h-8.665V7.774h-11.044z"/></symbol><symbol viewBox="0 0 18 18" id="mobile" xmlns="http://www.w3.org/2000/svg"><path d="M12 1.5H6a2.25 2.25 0 00-2.25 2.25v10.5A2.25 2.25 0 006 16.5h6a2.25 2.25 0 002.25-2.25V3.75A2.25 2.25 0 0012 1.5zm.75 12.75A.75.75 0 0112 15H6a.75.75 0 01-.75-.75v-.75h7.5v.75zm0-2.25h-7.5V3.75A.75.75 0 016 3h6a.75.75 0 01.75.75V12z"/></symbol><symbol viewBox="0 0 25 24" id="youtube" xmlns="http://www.w3.org/2000/svg"><g clip-path="url(#ea)"><path d="M14.397 11.8l-2.695-1.258c-.235-.11-.429.013-.429.274v2.368c0 .26.194.383.429.274l2.694-1.258c.236-.11.236-.29.001-.4zM12.473.48C6.111.48.953 5.638.953 12c0 6.362 5.158 11.52 11.52 11.52 6.363 0 11.52-5.158 11.52-11.52 0-6.362-5.157-11.52-11.52-11.52zm0 16.2c-5.896 0-6-.532-6-4.68s.104-4.68 6-4.68c5.897 0 6 .532 6 4.68s-.103 4.68-6 4.68z"/></g><defs><clipPath id="ea"><path transform="translate(.473)" d="M0 0h24v24H0z"/></clipPath></defs></symbol></svg>